# xmcd CD database file
#
# Track frame offsets:
#	150
#	23224
#	43095
#	68572
#	87452
#	112014
#	150731
#	175398
#	202228
#	230078
#	255341
#	273881
#	300411
#
# Disc length: 4309 seconds
#
# Revision: 1
# Processed by: cddbd v1.5.2PL0 Copyright (c) Steve Scherf et al.
# Submitted via: CDex 1.50
#
DISCID=b010d30d
DTITLE=Various Artist - Night music - Jazz collection Disc 1
DYEAR=1900
DGENRE=Jazz
TTITLE0=Lee Ritenour and Dave Grusin -  Waterto Drink
TTITLE1=Dianne Reeves - I remember sky
TTITLE2=Charlie Haden and Pat Metheny - Our spanish love songs
TTITLE3=Shirley Horn - The man you were
TTITLE4=Ferenc Snetberger - Manha de carneval
TTITLE5=Kenny Kirkland - Ana Marija
TTITLE6=Kurt Elling - Never say Goodbaye (For Jodi)
TTITLE7=Freddie Hubbard (voc Phill Perry) - Was she really there?
TTITLE8=Arturo Sandoval - Samba de amore
TTITLE9=Cassandra Wilson - Tupelo honey
TTITLE10=Diana Krall - Gee baby, ain't I good to you
TTITLE11=Everette Harp - Coming home
TTITLE12=Terry Callier - C'est la vie
EXTD=
EXTT0=
EXTT1=
EXTT2=
EXTT3=
EXTT4=
EXTT5=
EXTT6=
EXTT7=
EXTT8=
EXTT9=
EXTT10=
EXTT11=
EXTT12=
PLAYORDER=
